<?xml version="1.0" standalone="no"?>
<!DOCTYPE svg PUBLIC "-//W3C//DTD SVG 20010904//EN"
 "http://www.w3.org/TR/2001/REC-SVG-20010904/DTD/svg10.dtd">
<svg version="1.0" xmlns="http://www.w3.org/2000/svg"
 width="3000.000000pt" height="3000.000000pt" viewBox="0 0 3000.000000 3000.000000"
 preserveAspectRatio="xMidYMid meet">
<metadata>
Created by potrace 1.11, written by Peter Selinger 2001-2013
</metadata>
<g transform="translate(0.000000,3000.000000) scale(0.100000,-0.100000)"
fill="#000000" stroke="none">
<path d="M14009 28646 c-2 -2 -84 -7 -182 -11 -98 -3 -186 -8 -195 -10 -10 -1
-72 -6 -140 -10 -67 -3 -135 -8 -150 -10 -15 -1 -63 -6 -107 -9 -44 -4 -100
-8 -125 -11 -25 -3 -70 -7 -100 -10 -30 -3 -71 -8 -90 -10 -19 -3 -57 -7 -85
-10 -149 -16 -233 -27 -420 -55 -77 -12 -156 -24 -175 -26 -63 -8 -432 -74
-560 -100 -69 -14 -134 -28 -144 -30 -177 -35 -568 -130 -806 -194 -63 -17
-140 -38 -170 -46 -137 -38 -496 -150 -710 -223 -924 -315 -1851 -738 -2658
-1212 -75 -45 -153 -90 -172 -101 -289 -165 -909 -585 -1305 -881 -110 -83
-503 -394 -515 -407 -3 -3 -45 -39 -95 -80 -49 -41 -92 -77 -95 -80 -3 -3 -36
-32 -75 -65 -38 -33 -72 -62 -75 -65 -3 -3 -38 -35 -79 -70 -41 -36 -84 -74
-96 -85 -11 -11 -86 -81 -166 -155 -365 -340 -836 -832 -1144 -1195 -27 -33
-64 -75 -81 -95 -130 -149 -481 -600 -650 -835 -95 -133 -137 -193 -266 -380
-187 -271 -395 -611 -650 -1060 -104 -184 -391 -746 -471 -925 -8 -19 -30 -66
-47 -105 -46 -100 -210 -484 -210 -490 0 -4 -8 -25 -19 -48 -10 -23 -43 -107
-74 -187 -238 -622 -431 -1252 -571 -1870 -119 -525 -195 -982 -261 -1565 -13
-122 -34 -346 -40 -450 -3 -49 -8 -114 -10 -142 -13 -163 -20 -438 -20 -828 0
-460 8 -721 30 -960 3 -33 10 -112 15 -175 19 -216 21 -235 25 -265 2 -16 11
-93 20 -170 9 -77 18 -151 20 -165 2 -14 6 -45 10 -70 10 -81 20 -150 30 -210
3 -16 7 -42 9 -57 9 -52 66 -378 71 -403 3 -14 7 -36 10 -50 160 -862 507
-1968 875 -2785 10 -22 37 -83 60 -135 71 -160 302 -626 400 -805 51 -93 108
-199 128 -235 41 -77 279 -474 343 -574 78 -124 302 -460 339 -511 20 -27 65
-90 100 -140 53 -75 184 -253 212 -290 5 -5 22 -28 39 -50 16 -22 35 -47 42
-55 7 -8 44 -55 82 -105 113 -146 427 -520 515 -615 8 -9 53 -59 100 -110 239
-265 729 -754 910 -910 20 -17 102 -91 174 -155 29 -26 97 -84 146 -125 29
-25 58 -50 64 -55 6 -6 36 -30 66 -55 30 -24 63 -51 72 -60 9 -8 23 -20 30
-25 7 -6 65 -51 128 -101 98 -78 324 -250 402 -306 202 -146 316 -226 346
-243 9 -5 19 -13 22 -16 7 -7 240 -160 365 -239 55 -34 123 -78 152 -96 28
-19 54 -34 56 -34 3 0 41 -22 84 -49 43 -26 98 -59 122 -72 24 -13 51 -29 60
-34 9 -6 72 -41 141 -79 69 -38 145 -81 170 -94 65 -37 577 -293 630 -316 25
-11 79 -35 120 -54 41 -19 94 -43 117 -53 24 -11 62 -27 85 -38 24 -10 72 -30
108 -45 36 -15 79 -34 95 -41 17 -7 84 -34 150 -60 66 -26 149 -58 185 -72
306 -120 764 -266 1285 -408 81 -23 436 -106 515 -121 14 -3 90 -18 170 -34
128 -26 430 -78 545 -95 23 -3 50 -7 60 -9 49 -9 249 -35 310 -41 84 -8 162
-17 175 -20 8 -2 53 -7 100 -10 47 -4 101 -8 120 -10 41 -4 170 -14 250 -20
263 -20 1107 -27 1365 -12 317 19 535 36 660 51 28 3 75 8 105 11 30 3 66 7
80 10 29 4 124 16 160 20 23 2 129 17 140 20 3 1 30 5 60 9 85 12 114 16 130
21 8 2 38 6 65 10 28 3 68 10 90 15 22 5 56 12 75 15 19 3 103 20 185 36 83
17 161 32 175 35 14 3 63 14 110 25 47 11 96 23 109 25 36 7 222 54 256 65 17
5 91 25 165 44 74 20 146 40 160 45 14 4 59 18 100 30 174 51 483 154 677 226
131 49 325 123 348 134 11 5 80 34 154 65 514 215 1026 475 1515 767 209 125
536 338 751 489 88 61 349 252 355 259 3 3 34 28 70 55 109 82 488 391 510
415 3 3 61 55 130 115 180 158 247 222 510 485 213 213 275 277 420 436 79 87
244 276 321 369 40 50 76 92 79 95 3 3 28 34 55 70 28 36 52 67 55 70 13 12
184 235 257 335 340 468 589 862 868 1375 25 47 104 202 174 345 369 745 643
1500 835 2295 25 102 47 196 50 210 3 14 7 36 10 50 3 14 8 36 11 50 3 14 7
36 10 50 3 14 7 36 10 50 8 39 15 72 20 105 3 17 8 41 10 55 8 36 12 59 20
110 4 25 9 54 11 65 2 11 11 65 20 120 8 55 17 111 20 125 3 22 14 100 29 220
3 19 7 60 10 90 3 30 7 64 9 75 2 11 7 60 11 109 4 50 8 97 10 106 2 9 6 66
10 126 4 60 8 125 10 144 24 233 23 1045 -1 1350 -2 30 -6 81 -9 114 -2 32 -6
60 -9 63 -3 3 -4814 6 -5263 3 -35 0 -63 -4 -63 -10 0 -5 -21 -52 -46 -105
-42 -88 -45 -100 -39 -148 22 -170 30 -340 29 -622 0 -285 -8 -421 -34 -625
-5 -41 -12 -97 -16 -125 -3 -27 -8 -59 -10 -70 -3 -11 -7 -38 -10 -60 -44
-313 -225 -938 -353 -1217 -11 -25 -30 -69 -41 -99 -35 -89 -207 -431 -277
-552 -142 -245 -325 -521 -456 -687 -67 -86 -219 -273 -247 -304 -119 -133
-162 -178 -320 -336 -197 -198 -322 -310 -540 -484 -52 -42 -99 -79 -105 -84
-5 -4 -44 -32 -85 -63 -312 -227 -641 -428 -965 -588 -248 -123 -291 -142
-490 -221 -88 -35 -169 -67 -180 -72 -43 -18 -385 -128 -480 -153 -130 -36
-365 -93 -407 -100 -18 -3 -64 -12 -103 -20 -38 -8 -86 -17 -105 -20 -19 -2
-45 -7 -56 -9 -18 -4 -229 -33 -369 -51 -22 -3 -74 -8 -115 -10 -41 -3 -93 -7
-115 -10 -65 -7 -361 -18 -485 -18 -133 0 -493 13 -524 19 -11 2 -52 6 -91 9
-38 3 -86 7 -105 9 -19 3 -60 7 -90 11 -62 6 -101 11 -145 19 -16 3 -52 8 -80
12 -81 10 -124 17 -235 39 -41 9 -86 17 -100 20 -60 11 -92 18 -210 47 -149
36 -322 82 -405 108 -242 77 -504 170 -630 225 -338 145 -742 344 -847 417
-14 10 -29 18 -32 18 -16 0 -380 231 -526 334 -281 198 -557 420 -815 656 -94
86 -381 376 -470 474 -44 49 -84 94 -90 100 -5 6 -35 40 -65 76 -30 36 -57 67
-60 70 -91 87 -550 721 -679 941 -298 501 -452 812 -636 1279 -61 154 -177
484 -190 540 -2 8 -17 62 -34 120 -41 139 -47 161 -71 255 -42 169 -80 347
-111 515 -33 183 -34 191 -44 280 -3 30 -11 87 -16 125 -5 39 -12 90 -15 115
-2 25 -6 63 -9 85 -2 22 -7 78 -10 125 -4 47 -8 99 -10 115 -17 141 -24 703
-11 960 14 291 42 562 87 845 10 69 22 141 25 160 3 19 21 114 40 210 114 565
296 1142 531 1680 69 160 305 636 355 718 21 34 38 65 38 68 0 22 378 621 470
744 432 581 617 798 1010 1190 281 281 408 394 761 683 192 157 627 465 874
619 302 188 742 427 1010 548 28 13 79 36 115 52 538 245 1301 495 1840 604
280 56 448 85 670 114 47 6 96 13 110 15 26 4 137 16 180 20 14 1 59 5 100 9
41 4 95 9 120 11 25 2 86 7 135 10 50 3 131 8 180 11 201 12 829 5 1025 -11
30 -2 93 -7 140 -10 47 -3 101 -8 120 -10 19 -2 64 -7 100 -10 36 -3 76 -7 90
-10 14 -2 52 -7 85 -10 54 -6 364 -50 425 -60 14 -3 66 -12 115 -21 154 -27
373 -73 565 -120 1114 -273 2163 -737 3135 -1389 165 -111 423 -292 435 -306
3 -3 41 -32 85 -64 44 -33 96 -73 116 -90 20 -16 65 -52 100 -80 35 -27 75
-60 89 -71 14 -12 75 -63 135 -114 351 -297 705 -645 1069 -1050 76 -84 202
-234 307 -365 908 -1128 1579 -2424 1966 -3800 135 -480 266 -1137 309 -1550
2 -27 7 -63 9 -80 5 -30 9 -71 20 -180 3 -33 8 -84 11 -112 l6 -53 2725 0
2725 0 -7 108 c-7 135 -28 399 -40 527 -4 33 -8 80 -11 105 -9 98 -24 239 -29
270 -2 14 -6 52 -10 85 -3 33 -8 71 -10 85 -2 14 -7 43 -9 65 -22 167 -105
690 -131 815 -3 14 -12 63 -21 110 -33 174 -125 583 -184 820 -144 574 -305
1091 -528 1695 -79 214 -265 671 -345 845 -14 30 -43 96 -65 145 -305 689
-769 1529 -1239 2243 -147 222 -464 673 -550 782 -24 31 -245 316 -266 344
-56 75 -364 447 -443 536 -17 19 -66 76 -109 125 -214 245 -374 414 -710 751
-241 241 -454 446 -545 524 -14 12 -41 36 -60 54 -52 47 -218 194 -281 247
-30 25 -85 73 -124 106 -38 32 -131 109 -205 169 -1562 1270 -3325 2217 -5205
2797 -174 54 -613 179 -673 192 -10 2 -109 26 -222 54 -187 45 -487 112 -568
126 -18 3 -65 12 -105 21 -73 15 -494 87 -577 99 -25 3 -88 12 -140 20 -125
19 -225 32 -430 55 -154 17 -171 19 -250 25 -41 3 -88 8 -105 10 -16 2 -68 7
-115 10 -47 3 -105 8 -130 10 -25 2 -99 7 -165 10 -66 4 -147 9 -180 12 -72 6
-1200 15 -1206 9z"/>
</g>
</svg>
